<mxfile host="Electron" agent="Mozilla/5.0 (X11; Linux x86_64) AppleWebKit/537.36 (KHTML, like Gecko) draw.io/26.2.15 Chrome/134.0.6998.205 Electron/35.2.1 Safari/537.36" version="26.2.15">
  <diagram name="Page-1" id="m3SqwrhWJqCA_VAdvfQs">
    <mxGraphModel dx="1426" dy="843" grid="1" gridSize="10" guides="1" tooltips="1" connect="1" arrows="1" fold="1" page="1" pageScale="1" pageWidth="850" pageHeight="1100" math="0" shadow="0">
      <root>
        <mxCell id="0" />
        <mxCell id="1" parent="0" />
        <mxCell id="MwJkDqI5hdyIqMmjFNLh-46" value="data1.csv" style="swimlane;fontStyle=0;childLayout=stackLayout;horizontal=1;startSize=30;horizontalStack=0;resizeParent=1;resizeParentMax=0;resizeLast=0;collapsible=1;marginBottom=0;whiteSpace=wrap;html=1;" vertex="1" parent="1">
          <mxGeometry x="40" width="120" height="210" as="geometry" />
        </mxCell>
        <mxCell id="MwJkDqI5hdyIqMmjFNLh-47" value="id" style="text;strokeColor=none;fillColor=none;align=left;verticalAlign=middle;spacingLeft=4;spacingRight=4;overflow=hidden;points=[[0,0.5],[1,0.5]];portConstraint=eastwest;rotatable=0;whiteSpace=wrap;html=1;" vertex="1" parent="MwJkDqI5hdyIqMmjFNLh-46">
          <mxGeometry y="30" width="120" height="30" as="geometry" />
        </mxCell>
        <mxCell id="MwJkDqI5hdyIqMmjFNLh-48" value="email&lt;span style=&quot;white-space: pre;&quot;&gt;&#x9;&lt;/span&gt;" style="text;strokeColor=none;fillColor=none;align=left;verticalAlign=middle;spacingLeft=4;spacingRight=4;overflow=hidden;points=[[0,0.5],[1,0.5]];portConstraint=eastwest;rotatable=0;whiteSpace=wrap;html=1;" vertex="1" parent="MwJkDqI5hdyIqMmjFNLh-46">
          <mxGeometry y="60" width="120" height="30" as="geometry" />
        </mxCell>
        <mxCell id="MwJkDqI5hdyIqMmjFNLh-49" value="name" style="text;strokeColor=#006EAF;fillColor=#1ba1e2;align=left;verticalAlign=middle;spacingLeft=4;spacingRight=4;overflow=hidden;points=[[0,0.5],[1,0.5]];portConstraint=eastwest;rotatable=0;whiteSpace=wrap;html=1;fontColor=#ffffff;" vertex="1" parent="MwJkDqI5hdyIqMmjFNLh-46">
          <mxGeometry y="90" width="120" height="30" as="geometry" />
        </mxCell>
        <mxCell id="MwJkDqI5hdyIqMmjFNLh-54" value="department" style="text;strokeColor=#2D7600;fillColor=#60a917;align=left;verticalAlign=middle;spacingLeft=4;spacingRight=4;overflow=hidden;points=[[0,0.5],[1,0.5]];portConstraint=eastwest;rotatable=0;whiteSpace=wrap;html=1;fontColor=#ffffff;" vertex="1" parent="MwJkDqI5hdyIqMmjFNLh-46">
          <mxGeometry y="120" width="120" height="30" as="geometry" />
        </mxCell>
        <mxCell id="MwJkDqI5hdyIqMmjFNLh-53" value="hours_worked" style="text;strokeColor=#A50040;fillColor=#d80073;align=left;verticalAlign=middle;spacingLeft=4;spacingRight=4;overflow=hidden;points=[[0,0.5],[1,0.5]];portConstraint=eastwest;rotatable=0;whiteSpace=wrap;html=1;fontColor=#ffffff;" vertex="1" parent="MwJkDqI5hdyIqMmjFNLh-46">
          <mxGeometry y="150" width="120" height="30" as="geometry" />
        </mxCell>
        <mxCell id="MwJkDqI5hdyIqMmjFNLh-52" value="hourly_rate" style="text;strokeColor=#BD7000;fillColor=#f0a30a;align=left;verticalAlign=middle;spacingLeft=4;spacingRight=4;overflow=hidden;points=[[0,0.5],[1,0.5]];portConstraint=eastwest;rotatable=0;whiteSpace=wrap;html=1;fontColor=#000000;" vertex="1" parent="MwJkDqI5hdyIqMmjFNLh-46">
          <mxGeometry y="180" width="120" height="30" as="geometry" />
        </mxCell>
        <mxCell id="MwJkDqI5hdyIqMmjFNLh-56" value="data1.csv" style="swimlane;fontStyle=0;childLayout=stackLayout;horizontal=1;startSize=30;horizontalStack=0;resizeParent=1;resizeParentMax=0;resizeLast=0;collapsible=1;marginBottom=0;whiteSpace=wrap;html=1;" vertex="1" parent="1">
          <mxGeometry x="40" y="480" width="120" height="210" as="geometry" />
        </mxCell>
        <mxCell id="MwJkDqI5hdyIqMmjFNLh-60" value="department" style="text;strokeColor=#2D7600;fillColor=#60a917;align=left;verticalAlign=middle;spacingLeft=4;spacingRight=4;overflow=hidden;points=[[0,0.5],[1,0.5]];portConstraint=eastwest;rotatable=0;whiteSpace=wrap;html=1;fontColor=#ffffff;" vertex="1" parent="MwJkDqI5hdyIqMmjFNLh-56">
          <mxGeometry y="30" width="120" height="30" as="geometry" />
        </mxCell>
        <mxCell id="MwJkDqI5hdyIqMmjFNLh-57" value="id" style="text;strokeColor=none;fillColor=none;align=left;verticalAlign=middle;spacingLeft=4;spacingRight=4;overflow=hidden;points=[[0,0.5],[1,0.5]];portConstraint=eastwest;rotatable=0;whiteSpace=wrap;html=1;" vertex="1" parent="MwJkDqI5hdyIqMmjFNLh-56">
          <mxGeometry y="60" width="120" height="30" as="geometry" />
        </mxCell>
        <mxCell id="MwJkDqI5hdyIqMmjFNLh-58" value="email&lt;span style=&quot;white-space: pre;&quot;&gt;&#x9;&lt;/span&gt;" style="text;strokeColor=none;fillColor=none;align=left;verticalAlign=middle;spacingLeft=4;spacingRight=4;overflow=hidden;points=[[0,0.5],[1,0.5]];portConstraint=eastwest;rotatable=0;whiteSpace=wrap;html=1;" vertex="1" parent="MwJkDqI5hdyIqMmjFNLh-56">
          <mxGeometry y="90" width="120" height="30" as="geometry" />
        </mxCell>
        <mxCell id="MwJkDqI5hdyIqMmjFNLh-59" value="name" style="text;strokeColor=#006EAF;fillColor=#1ba1e2;align=left;verticalAlign=middle;spacingLeft=4;spacingRight=4;overflow=hidden;points=[[0,0.5],[1,0.5]];portConstraint=eastwest;rotatable=0;whiteSpace=wrap;html=1;fontColor=#ffffff;" vertex="1" parent="MwJkDqI5hdyIqMmjFNLh-56">
          <mxGeometry y="120" width="120" height="30" as="geometry" />
        </mxCell>
        <mxCell id="MwJkDqI5hdyIqMmjFNLh-61" value="hours_worked" style="text;strokeColor=#A50040;fillColor=#d80073;align=left;verticalAlign=middle;spacingLeft=4;spacingRight=4;overflow=hidden;points=[[0,0.5],[1,0.5]];portConstraint=eastwest;rotatable=0;whiteSpace=wrap;html=1;fontColor=#ffffff;" vertex="1" parent="MwJkDqI5hdyIqMmjFNLh-56">
          <mxGeometry y="150" width="120" height="30" as="geometry" />
        </mxCell>
        <mxCell id="MwJkDqI5hdyIqMmjFNLh-62" value="rate" style="text;strokeColor=#BD7000;fillColor=#f0a30a;align=left;verticalAlign=middle;spacingLeft=4;spacingRight=4;overflow=hidden;points=[[0,0.5],[1,0.5]];portConstraint=eastwest;rotatable=0;whiteSpace=wrap;html=1;fontColor=#000000;" vertex="1" parent="MwJkDqI5hdyIqMmjFNLh-56">
          <mxGeometry y="180" width="120" height="30" as="geometry" />
        </mxCell>
        <mxCell id="MwJkDqI5hdyIqMmjFNLh-63" value="data1.csv" style="swimlane;fontStyle=0;childLayout=stackLayout;horizontal=1;startSize=30;horizontalStack=0;resizeParent=1;resizeParentMax=0;resizeLast=0;collapsible=1;marginBottom=0;whiteSpace=wrap;html=1;" vertex="1" parent="1">
          <mxGeometry x="40" y="240" width="120" height="210" as="geometry" />
        </mxCell>
        <mxCell id="MwJkDqI5hdyIqMmjFNLh-66" value="email&lt;span style=&quot;white-space: pre;&quot;&gt;&#x9;&lt;/span&gt;" style="text;strokeColor=none;fillColor=none;align=left;verticalAlign=middle;spacingLeft=4;spacingRight=4;overflow=hidden;points=[[0,0.5],[1,0.5]];portConstraint=eastwest;rotatable=0;whiteSpace=wrap;html=1;" vertex="1" parent="MwJkDqI5hdyIqMmjFNLh-63">
          <mxGeometry y="30" width="120" height="30" as="geometry" />
        </mxCell>
        <mxCell id="MwJkDqI5hdyIqMmjFNLh-67" value="name" style="text;strokeColor=#006EAF;fillColor=#1ba1e2;align=left;verticalAlign=middle;spacingLeft=4;spacingRight=4;overflow=hidden;points=[[0,0.5],[1,0.5]];portConstraint=eastwest;rotatable=0;whiteSpace=wrap;html=1;fontColor=#ffffff;" vertex="1" parent="MwJkDqI5hdyIqMmjFNLh-63">
          <mxGeometry y="60" width="120" height="30" as="geometry" />
        </mxCell>
        <mxCell id="MwJkDqI5hdyIqMmjFNLh-64" value="department" style="text;strokeColor=#2D7600;fillColor=#60a917;align=left;verticalAlign=middle;spacingLeft=4;spacingRight=4;overflow=hidden;points=[[0,0.5],[1,0.5]];portConstraint=eastwest;rotatable=0;whiteSpace=wrap;html=1;fontColor=#ffffff;" vertex="1" parent="MwJkDqI5hdyIqMmjFNLh-63">
          <mxGeometry y="90" width="120" height="30" as="geometry" />
        </mxCell>
        <mxCell id="MwJkDqI5hdyIqMmjFNLh-68" value="hours_worked" style="text;strokeColor=#A50040;fillColor=#d80073;align=left;verticalAlign=middle;spacingLeft=4;spacingRight=4;overflow=hidden;points=[[0,0.5],[1,0.5]];portConstraint=eastwest;rotatable=0;whiteSpace=wrap;html=1;fontColor=#ffffff;" vertex="1" parent="MwJkDqI5hdyIqMmjFNLh-63">
          <mxGeometry y="120" width="120" height="30" as="geometry" />
        </mxCell>
        <mxCell id="MwJkDqI5hdyIqMmjFNLh-69" value="salary" style="text;strokeColor=#BD7000;fillColor=#f0a30a;align=left;verticalAlign=middle;spacingLeft=4;spacingRight=4;overflow=hidden;points=[[0,0.5],[1,0.5]];portConstraint=eastwest;rotatable=0;whiteSpace=wrap;html=1;fontColor=#000000;" vertex="1" parent="MwJkDqI5hdyIqMmjFNLh-63">
          <mxGeometry y="150" width="120" height="30" as="geometry" />
        </mxCell>
        <mxCell id="MwJkDqI5hdyIqMmjFNLh-65" value="id" style="text;strokeColor=none;fillColor=none;align=left;verticalAlign=middle;spacingLeft=4;spacingRight=4;overflow=hidden;points=[[0,0.5],[1,0.5]];portConstraint=eastwest;rotatable=0;whiteSpace=wrap;html=1;" vertex="1" parent="MwJkDqI5hdyIqMmjFNLh-63">
          <mxGeometry y="180" width="120" height="30" as="geometry" />
        </mxCell>
        <mxCell id="MwJkDqI5hdyIqMmjFNLh-75" value="" style="edgeStyle=orthogonalEdgeStyle;rounded=0;orthogonalLoop=1;jettySize=auto;html=1;" edge="1" parent="1" source="MwJkDqI5hdyIqMmjFNLh-71" target="MwJkDqI5hdyIqMmjFNLh-74">
          <mxGeometry relative="1" as="geometry" />
        </mxCell>
        <mxCell id="MwJkDqI5hdyIqMmjFNLh-90" value="" style="edgeStyle=orthogonalEdgeStyle;rounded=0;orthogonalLoop=1;jettySize=auto;html=1;" edge="1" parent="1" source="MwJkDqI5hdyIqMmjFNLh-71" target="MwJkDqI5hdyIqMmjFNLh-89">
          <mxGeometry relative="1" as="geometry" />
        </mxCell>
        <mxCell id="MwJkDqI5hdyIqMmjFNLh-71" value="department" style="rounded=1;whiteSpace=wrap;html=1;fillColor=#60a917;fontColor=#ffffff;strokeColor=#2D7600;" vertex="1" parent="1">
          <mxGeometry x="360" y="760" width="120" height="40" as="geometry" />
        </mxCell>
        <mxCell id="MwJkDqI5hdyIqMmjFNLh-80" value="" style="edgeStyle=orthogonalEdgeStyle;rounded=0;orthogonalLoop=1;jettySize=auto;html=1;" edge="1" parent="1" source="MwJkDqI5hdyIqMmjFNLh-74" target="MwJkDqI5hdyIqMmjFNLh-79">
          <mxGeometry relative="1" as="geometry" />
        </mxCell>
        <mxCell id="MwJkDqI5hdyIqMmjFNLh-82" value="" style="edgeStyle=orthogonalEdgeStyle;rounded=0;orthogonalLoop=1;jettySize=auto;html=1;" edge="1" parent="1" source="MwJkDqI5hdyIqMmjFNLh-74" target="MwJkDqI5hdyIqMmjFNLh-81">
          <mxGeometry relative="1" as="geometry" />
        </mxCell>
        <mxCell id="MwJkDqI5hdyIqMmjFNLh-83" value="" style="edgeStyle=orthogonalEdgeStyle;rounded=0;orthogonalLoop=1;jettySize=auto;html=1;" edge="1" parent="1" source="MwJkDqI5hdyIqMmjFNLh-74" target="MwJkDqI5hdyIqMmjFNLh-81">
          <mxGeometry relative="1" as="geometry" />
        </mxCell>
        <mxCell id="MwJkDqI5hdyIqMmjFNLh-86" value="" style="edgeStyle=orthogonalEdgeStyle;rounded=0;orthogonalLoop=1;jettySize=auto;html=1;" edge="1" parent="1" source="MwJkDqI5hdyIqMmjFNLh-74" target="MwJkDqI5hdyIqMmjFNLh-85">
          <mxGeometry relative="1" as="geometry" />
        </mxCell>
        <mxCell id="MwJkDqI5hdyIqMmjFNLh-74" value="name" style="whiteSpace=wrap;html=1;rounded=1;fillColor=#1ba1e2;fontColor=#ffffff;strokeColor=#006EAF;" vertex="1" parent="1">
          <mxGeometry x="200" y="840" width="80" height="40" as="geometry" />
        </mxCell>
        <mxCell id="MwJkDqI5hdyIqMmjFNLh-79" value="hours" style="whiteSpace=wrap;html=1;rounded=1;fillColor=#d80073;fontColor=#ffffff;strokeColor=#A50040;" vertex="1" parent="1">
          <mxGeometry x="80" y="920" width="80" height="40" as="geometry" />
        </mxCell>
        <mxCell id="MwJkDqI5hdyIqMmjFNLh-81" value="rate" style="whiteSpace=wrap;html=1;rounded=1;fillColor=#f0a30a;fontColor=#000000;strokeColor=#BD7000;" vertex="1" parent="1">
          <mxGeometry x="200" y="920" width="80" height="40" as="geometry" />
        </mxCell>
        <mxCell id="MwJkDqI5hdyIqMmjFNLh-85" value="payout" style="whiteSpace=wrap;html=1;rounded=1;" vertex="1" parent="1">
          <mxGeometry x="320" y="920" width="80" height="40" as="geometry" />
        </mxCell>
        <mxCell id="MwJkDqI5hdyIqMmjFNLh-94" style="edgeStyle=orthogonalEdgeStyle;rounded=0;orthogonalLoop=1;jettySize=auto;html=1;" edge="1" parent="1" source="MwJkDqI5hdyIqMmjFNLh-89" target="MwJkDqI5hdyIqMmjFNLh-91">
          <mxGeometry relative="1" as="geometry" />
        </mxCell>
        <mxCell id="MwJkDqI5hdyIqMmjFNLh-96" value="" style="edgeStyle=orthogonalEdgeStyle;rounded=0;orthogonalLoop=1;jettySize=auto;html=1;" edge="1" parent="1" source="MwJkDqI5hdyIqMmjFNLh-89" target="MwJkDqI5hdyIqMmjFNLh-95">
          <mxGeometry relative="1" as="geometry" />
        </mxCell>
        <mxCell id="MwJkDqI5hdyIqMmjFNLh-89" value="__report__" style="whiteSpace=wrap;html=1;fillColor=#a20025;strokeColor=#6F0000;fontColor=#ffffff;rounded=1;" vertex="1" parent="1">
          <mxGeometry x="560" y="840" width="80" height="40" as="geometry" />
        </mxCell>
        <mxCell id="MwJkDqI5hdyIqMmjFNLh-91" value="hours" style="whiteSpace=wrap;html=1;fillColor=#d80073;strokeColor=#A50040;fontColor=#ffffff;rounded=1;" vertex="1" parent="1">
          <mxGeometry x="440" y="920" width="80" height="40" as="geometry" />
        </mxCell>
        <mxCell id="MwJkDqI5hdyIqMmjFNLh-95" value="payout" style="whiteSpace=wrap;html=1;rounded=1;" vertex="1" parent="1">
          <mxGeometry x="680" y="920" width="80" height="40" as="geometry" />
        </mxCell>
        <mxCell id="MwJkDqI5hdyIqMmjFNLh-99" value="filter_duplicates_by" style="whiteSpace=wrap;html=1;" vertex="1" parent="1">
          <mxGeometry x="360" y="120" width="120" height="40" as="geometry" />
        </mxCell>
        <mxCell id="MwJkDqI5hdyIqMmjFNLh-100" style="edgeStyle=orthogonalEdgeStyle;rounded=0;orthogonalLoop=1;jettySize=auto;html=1;" edge="1" parent="1" source="MwJkDqI5hdyIqMmjFNLh-47" target="MwJkDqI5hdyIqMmjFNLh-99">
          <mxGeometry relative="1" as="geometry">
            <Array as="points">
              <mxPoint x="200" y="45" />
              <mxPoint x="200" y="140" />
            </Array>
          </mxGeometry>
        </mxCell>
        <mxCell id="MwJkDqI5hdyIqMmjFNLh-102" style="edgeStyle=orthogonalEdgeStyle;rounded=0;orthogonalLoop=1;jettySize=auto;html=1;" edge="1" parent="1" source="MwJkDqI5hdyIqMmjFNLh-65" target="MwJkDqI5hdyIqMmjFNLh-99">
          <mxGeometry relative="1" as="geometry">
            <Array as="points">
              <mxPoint x="200" y="435" />
              <mxPoint x="200" y="140" />
            </Array>
          </mxGeometry>
        </mxCell>
        <mxCell id="MwJkDqI5hdyIqMmjFNLh-103" style="edgeStyle=orthogonalEdgeStyle;rounded=0;orthogonalLoop=1;jettySize=auto;html=1;" edge="1" parent="1" source="MwJkDqI5hdyIqMmjFNLh-57" target="MwJkDqI5hdyIqMmjFNLh-99">
          <mxGeometry relative="1" as="geometry">
            <Array as="points">
              <mxPoint x="200" y="555" />
              <mxPoint x="200" y="140" />
            </Array>
          </mxGeometry>
        </mxCell>
        <mxCell id="MwJkDqI5hdyIqMmjFNLh-104" value="column matching" style="whiteSpace=wrap;html=1;fillColor=#f0a30a;fontColor=#000000;strokeColor=#BD7000;" vertex="1" parent="1">
          <mxGeometry x="360" y="200" width="120" height="40" as="geometry" />
        </mxCell>
        <mxCell id="MwJkDqI5hdyIqMmjFNLh-105" style="edgeStyle=orthogonalEdgeStyle;rounded=0;orthogonalLoop=1;jettySize=auto;html=1;fillColor=#f0a30a;strokeColor=#BD7000;" edge="1" parent="1" source="MwJkDqI5hdyIqMmjFNLh-62" target="MwJkDqI5hdyIqMmjFNLh-104">
          <mxGeometry relative="1" as="geometry">
            <Array as="points">
              <mxPoint x="240" y="675" />
              <mxPoint x="240" y="220" />
            </Array>
          </mxGeometry>
        </mxCell>
        <mxCell id="MwJkDqI5hdyIqMmjFNLh-106" style="edgeStyle=orthogonalEdgeStyle;rounded=0;orthogonalLoop=1;jettySize=auto;html=1;fillColor=#f0a30a;strokeColor=#BD7000;" edge="1" parent="1" source="MwJkDqI5hdyIqMmjFNLh-52" target="MwJkDqI5hdyIqMmjFNLh-104">
          <mxGeometry relative="1" as="geometry">
            <Array as="points">
              <mxPoint x="240" y="195" />
              <mxPoint x="240" y="220" />
            </Array>
          </mxGeometry>
        </mxCell>
        <mxCell id="MwJkDqI5hdyIqMmjFNLh-107" style="edgeStyle=orthogonalEdgeStyle;rounded=0;orthogonalLoop=1;jettySize=auto;html=1;fillColor=#f0a30a;strokeColor=#BD7000;" edge="1" parent="1" source="MwJkDqI5hdyIqMmjFNLh-69" target="MwJkDqI5hdyIqMmjFNLh-104">
          <mxGeometry relative="1" as="geometry">
            <Array as="points">
              <mxPoint x="240" y="405" />
              <mxPoint x="240" y="220" />
            </Array>
          </mxGeometry>
        </mxCell>
        <mxCell id="MwJkDqI5hdyIqMmjFNLh-108" value="group_by" style="whiteSpace=wrap;html=1;fillColor=#60a917;fontColor=#ffffff;strokeColor=#2D7600;" vertex="1" parent="1">
          <mxGeometry x="360" y="280" width="120" height="40" as="geometry" />
        </mxCell>
        <mxCell id="MwJkDqI5hdyIqMmjFNLh-109" style="edgeStyle=orthogonalEdgeStyle;rounded=0;orthogonalLoop=1;jettySize=auto;html=1;fillColor=#60a917;strokeColor=#2D7600;" edge="1" parent="1" source="MwJkDqI5hdyIqMmjFNLh-64" target="MwJkDqI5hdyIqMmjFNLh-108">
          <mxGeometry relative="1" as="geometry">
            <Array as="points">
              <mxPoint x="280" y="345" />
              <mxPoint x="280" y="300" />
            </Array>
          </mxGeometry>
        </mxCell>
        <mxCell id="MwJkDqI5hdyIqMmjFNLh-110" style="edgeStyle=orthogonalEdgeStyle;rounded=0;orthogonalLoop=1;jettySize=auto;html=1;fillColor=#60a917;strokeColor=#2D7600;" edge="1" parent="1" source="MwJkDqI5hdyIqMmjFNLh-60" target="MwJkDqI5hdyIqMmjFNLh-108">
          <mxGeometry relative="1" as="geometry">
            <Array as="points">
              <mxPoint x="280" y="525" />
              <mxPoint x="280" y="300" />
            </Array>
          </mxGeometry>
        </mxCell>
        <mxCell id="MwJkDqI5hdyIqMmjFNLh-111" style="edgeStyle=orthogonalEdgeStyle;rounded=0;orthogonalLoop=1;jettySize=auto;html=1;fillColor=#60a917;strokeColor=#2D7600;" edge="1" parent="1" source="MwJkDqI5hdyIqMmjFNLh-54" target="MwJkDqI5hdyIqMmjFNLh-108">
          <mxGeometry relative="1" as="geometry">
            <Array as="points">
              <mxPoint x="280" y="135" />
              <mxPoint x="280" y="300" />
            </Array>
          </mxGeometry>
        </mxCell>
      </root>
    </mxGraphModel>
  </diagram>
</mxfile>
